<svg width="37" height="36" viewBox="0 0 37 36" fill="none" xmlns="http://www.w3.org/2000/svg">
<path d="M27.5 10.5H24.125L23.7299 9.44658C23.2909 8.27573 22.1715 7.5 20.921 7.5H16.0805C14.8314 7.5 13.7129 8.274 13.2728 9.44311L12.875 10.5H9.5C7.84316 10.5 6.5 11.8431 6.5 13.5V25.5C6.5 27.1568 7.84316 28.5 9.5 28.5H27.5C29.1568 28.5 30.5 27.1568 30.5 25.5V13.5C30.5 11.8431 29.1568 10.5 27.5 10.5ZM28.25 25.5C28.25 25.9135 27.9135 26.25 27.5 26.25H9.5C9.08647 26.25 8.75 25.9135 8.75 25.5V13.5C8.75 13.0865 9.08647 12.75 9.5 12.75H14.4322L14.9808 11.2927L15.3786 10.2358C15.4879 9.94519 15.7701 9.75 16.0805 9.75H20.921C21.2318 9.75 21.5141 9.94556 21.6232 10.2366L22.0183 11.29L22.5658 12.75H27.5C27.9135 12.75 28.25 13.0865 28.25 13.5V25.5ZM18.5 14.25C15.6005 14.25 13.25 16.6005 13.25 19.5C13.25 22.3995 15.6005 24.75 18.5 24.75C21.3995 24.75 23.75 22.3995 23.75 19.5C23.75 16.6005 21.3995 14.25 18.5 14.25ZM18.5 22.5C16.8458 22.5 15.5 21.1542 15.5 19.5C15.5 17.8457 16.8458 16.5 18.5 16.5C20.1542 16.5 21.5 17.8457 21.5 19.5C21.5 21.1542 20.1542 22.5 18.5 22.5Z" fill="#2A2A2A"/>
</svg>
