<svg width="160" height="160" viewBox="0 0 160 160" fill="none" xmlns="http://www.w3.org/2000/svg">
<rect x="0.5" y="0.5" width="159" height="159" rx="5.5" fill="white"/>
<rect x="0.5" y="0.5" width="159" height="159" rx="5.5" stroke="#DBDDE1"/>
<path d="M98 72.125V92.375C98 94.2383 96.4883 95.75 94.625 95.75H65.375C63.5117 95.75 62 94.2383 62 92.375V72.125C62 70.2617 63.5117 68.75 65.375 68.75H71.5625L72.4273 66.4367C72.9195 65.1219 74.1781 64.25 75.5844 64.25H84.4086C85.8148 64.25 87.0734 65.1219 87.5656 66.4367L88.4375 68.75H94.625C96.4883 68.75 98 70.2617 98 72.125ZM88.4375 82.25C88.4375 77.5953 84.6547 73.8125 80 73.8125C75.3453 73.8125 71.5625 77.5953 71.5625 82.25C71.5625 86.9047 75.3453 90.6875 80 90.6875C84.6547 90.6875 88.4375 86.9047 88.4375 82.25ZM86.1875 82.25C86.1875 85.6602 83.4102 88.4375 80 88.4375C76.5898 88.4375 73.8125 85.6602 73.8125 82.25C73.8125 78.8398 76.5898 76.0625 80 76.0625C83.4102 76.0625 86.1875 78.8398 86.1875 82.25Z" fill="black" fill-opacity="0.4"/>
</svg>
