<svg width="44" height="36" viewBox="0 0 44 36" fill="none" xmlns="http://www.w3.org/2000/svg">
<path d="M42.35 25.875H41.8V17.7099C41.8 16.374 41.2672 15.0732 40.3477 14.1328L34.5751 8.22909C33.6491 7.28205 32.3932 6.75 31.0836 6.75H28.6V3.9375C28.6 1.76287 26.8763 0 24.75 0H8.25C6.1237 0 4.4 1.76287 4.4 3.9375V6.75H1.1C0.495 6.75 0 7.25625 0 7.875C0 8.49374 0.495 8.99999 1.1 8.99999H16.5C17.105 8.99999 17.6 8.49374 17.6 7.875C17.6 7.25625 17.105 6.75 16.5 6.75H7.7V3.9375C7.7 3.62812 7.9475 3.375 8.25 3.375H24.75C25.0525 3.375 25.3 3.62812 25.3 3.9375V25.875H16.6891C15.5461 23.8623 13.4406 22.5 11 22.5C9.78828 22.5 8.67969 22.8603 7.7 23.4316V20.25H4.4V29.0251C4.4 32.7407 7.24103 35.929 10.8734 35.9988C14.575 36.0698 17.6 33.0196 17.6 29.25H26.4C26.4 32.9765 29.3563 36 33 36C36.6437 36 39.6 32.9765 39.6 29.25H42.35C43.2575 29.25 44 28.4906 44 27.5625C44 26.6344 43.2575 25.875 42.35 25.875ZM11 32.625C9.17813 32.625 7.7 31.1133 7.7 29.25C7.7 27.3867 9.17813 25.875 11 25.875C12.8219 25.875 14.3 27.3867 14.3 29.25C14.3 31.1133 12.8219 32.625 11 32.625ZM28.6 10.125H31.0836C31.5133 10.125 31.943 10.3096 32.2523 10.6172L37.2711 15.75H28.6V10.125ZM33 32.625C31.1781 32.625 29.7 31.1133 29.7 29.25C29.7 27.3867 31.1781 25.875 33 25.875C34.8219 25.875 36.3 27.3867 36.3 29.25C36.3 31.1133 34.8219 32.625 33 32.625ZM38.5 25.5322C37.3141 23.7129 35.2945 22.5 33 22.5C31.2984 22.5 29.7688 23.1767 28.6 24.249V19.125H38.5V25.5322ZM17.6 16.875C17.6 16.2562 17.105 15.75 16.5 15.75H1.1C0.495 15.75 0 16.2562 0 16.875C0 17.4937 0.495 18 1.1 18H16.5C17.105 18 17.6 17.4937 17.6 16.875ZM18.7 13.5C19.305 13.5 19.8 12.9937 19.8 12.375C19.8 11.7562 19.305 11.25 18.7 11.25H3.3C2.695 11.25 2.2 11.7562 2.2 12.375C2.2 12.9937 2.695 13.5 3.3 13.5H18.7Z" fill="#13B8F9"/>
</svg>
