<svg width="44" height="45" viewBox="0 0 44 45" fill="none" xmlns="http://www.w3.org/2000/svg">
<path d="M16.5 19.75C18.0146 19.75 19.25 18.5146 19.25 17C19.25 15.4854 18.0146 14.25 16.5 14.25C14.9854 14.25 13.75 15.4854 13.75 17C13.75 18.5146 14.9854 19.75 16.5 19.75ZM44 22.5C44 19.3633 42.3887 16.624 39.9824 15.0449C40.5732 12.2197 39.7568 9.14746 37.5547 6.94531C35.3525 4.73242 32.2695 3.92676 29.4551 4.51758C27.8652 2.11133 25.1152 0.5 22 0.5C18.8848 0.5 16.1348 2.11133 14.5449 4.51758C11.7197 3.92676 8.64746 4.74316 6.44531 6.94531C4.23242 9.14746 3.42676 12.2305 4.01758 15.0449C1.60059 16.6348 0 19.3848 0 22.5C0 25.6152 1.61133 28.3652 4.01758 29.9551C3.42676 32.7803 4.24316 35.8525 6.44531 38.0547C8.64746 40.2676 11.709 41.0732 14.5449 40.4824C16.1348 42.8994 18.8848 44.5 22 44.5C25.126 44.5 27.8652 42.8887 29.4551 40.4824C32.291 41.0732 35.3525 40.2568 37.5547 38.0547C39.7676 35.8525 40.5732 32.7695 39.9824 29.9551C42.3994 28.3652 44 25.6152 44 22.5ZM34.6973 27.7637C35.4707 29.4824 37.2969 32.4795 34.6328 35.1436C32.2266 37.5498 29.8848 36.3896 27.2637 35.1973C26.5977 36.9697 25.7705 40.375 22 40.375C18.1113 40.375 17.2949 36.7012 16.7363 35.1973C14.9316 36.0244 12.0205 37.7969 9.35645 35.1328C6.60645 32.3828 8.63672 29.2139 9.30273 27.7637C7.53027 27.0977 4.125 26.2705 4.125 22.5C4.125 18.6113 7.79883 17.7949 9.30273 17.2363C8.5293 15.5176 6.70312 12.5205 9.36719 9.85645C12.1172 7.10645 15.2861 9.13672 16.7363 9.80273C17.4023 8.03027 18.2295 4.625 22 4.625C25.8887 4.625 26.7051 8.29883 27.2637 9.81348C28.9717 9.0293 31.9688 7.21387 34.6328 9.87793C37.3828 12.6279 35.3525 15.7969 34.6973 17.2471C36.459 17.9131 39.8643 18.7402 39.8643 22.5107C39.8643 26.3994 36.1904 27.2051 34.6973 27.7637ZM27.5 25.25C25.9854 25.25 24.75 26.4854 24.75 28C24.75 29.5146 25.9854 30.75 27.5 30.75C29.0146 30.75 30.25 29.5146 30.25 28C30.25 26.4854 29.0146 25.25 27.5 25.25ZM28.9814 15.5417C28.1757 14.7361 26.8706 14.7361 26.0649 15.5417L15.0649 26.5417C14.2593 27.3474 14.2593 28.6526 15.0649 29.4583C15.4677 29.8611 15.9941 30.0625 16.5232 30.0625C17.0523 30.0625 17.5786 29.8611 17.9814 29.4583L28.9814 18.4583C29.7871 17.6526 29.7871 16.3474 28.9814 15.5417Z" fill="#13B8F9"/>
</svg>
