<svg width="343" height="37" viewBox="0 0 343 37" fill="none" xmlns="http://www.w3.org/2000/svg">
<g clip-path="url(#clip0_1618_14105)">
<path d="M3.71365e-07 4.54936C-0.00911064 4.03132 0.0871167 3.51689 0.282742 3.03783C0.478368 2.55877 0.769239 2.12525 1.1374 1.76402C1.49434 1.39177 1.92329 1.09749 2.39763 0.899435C2.87198 0.701378 3.3816 0.603772 3.89488 0.61267H13.8063C16.4061 0.583095 18.9885 1.04275 21.4213 1.96807C23.6359 2.81122 25.6638 4.08707 27.3888 5.72248C29.0523 7.31528 30.3701 9.23903 31.2588 11.3721C32.1815 13.5969 32.6463 15.9877 32.6249 18.3993V18.5C32.6447 20.9199 32.18 23.319 31.2588 25.5534C30.3748 27.6952 29.0565 29.6268 27.3888 31.2242C25.6616 32.8636 23.6348 34.1484 21.4213 35.0069C18.9923 35.9484 16.4082 36.4163 13.8063 36.3857H3.89488C3.3816 36.3946 2.87198 36.297 2.39763 36.0989C1.92329 35.9009 1.49434 35.6066 1.1374 35.2343C0.769048 34.8734 0.478045 34.44 0.282402 33.961C0.0867603 33.482 -0.00935686 32.9675 3.71365e-07 32.4495V4.54936ZM13.8063 29.2833C15.2909 29.3013 16.7659 29.0412 18.1563 28.5161C19.4219 28.0383 20.5695 27.289 21.52 26.3201C22.4566 25.3497 23.1955 24.2036 23.695 22.9465C24.2343 21.5641 24.5006 20.0888 24.4792 18.6034V18.5C24.4942 17.0149 24.2281 15.5406 23.695 14.1563C23.2049 12.8792 22.4652 11.7146 21.52 10.7316C20.5658 9.76093 19.4197 9.00378 18.1563 8.50945C16.7696 7.96822 15.2931 7.69914 13.8063 7.71667H7.78923V29.2833H13.8063Z" fill="#2B5480"/>
<path d="M43.4488 36.3858C42.9367 36.3863 42.4294 36.2849 41.9562 36.0872C41.483 35.8895 41.0532 35.5995 40.6914 35.2337C40.3295 34.868 40.0428 34.4338 39.8477 33.9561C39.6526 33.4783 39.553 32.9664 39.5545 32.4496V4.54944C39.5454 4.0314 39.6416 3.51697 39.8372 3.03791C40.0328 2.55885 40.3237 2.12533 40.6919 1.76411C41.0487 1.3919 41.4776 1.09764 41.9518 0.899582C42.4261 0.701525 42.9356 0.603897 43.4488 0.612753H63.0748C63.5352 0.603376 63.9926 0.689365 64.4187 0.865405C64.8449 1.04145 65.2307 1.30379 65.5524 1.63624C65.8815 1.96163 66.1412 2.35155 66.3154 2.78201C66.4896 3.21246 66.5746 3.67433 66.5652 4.13918C66.5763 4.60078 66.4919 5.05964 66.3175 5.48654C66.1432 5.91344 65.8826 6.29902 65.5524 6.61872C65.2271 6.94461 64.84 7.20103 64.4144 7.37267C63.9887 7.54431 63.5331 7.62766 63.0748 7.61772H47.2925V14.8719H60.7978C61.2579 14.8671 61.7143 14.955 62.1402 15.1306C62.5661 15.3061 62.953 15.5657 63.2781 15.8941C63.6032 16.2226 63.86 16.6132 64.0335 17.0431C64.207 17.4731 64.2936 17.9336 64.2882 18.3978C64.2992 18.8591 64.215 19.3176 64.0409 19.7443C63.8668 20.171 63.6067 20.5564 63.277 20.8762C62.951 21.2018 62.5633 21.4578 62.1371 21.629C61.7108 21.8001 61.2548 21.883 60.7962 21.8725H47.2925V29.3862H63.3266C63.7867 29.3811 64.2431 29.4687 64.6691 29.6441C65.0951 29.8194 65.482 30.0789 65.8071 30.4073C66.1323 30.7357 66.3891 31.1264 66.5624 31.5563C66.7358 31.9863 66.8221 32.4469 66.8165 32.911C66.828 33.3725 66.744 33.8313 66.57 34.2582C66.396 34.6851 66.1358 35.0708 65.8058 35.3906C65.4799 35.7162 65.0922 35.9722 64.6659 36.1432C64.2397 36.3142 63.7836 36.3967 63.325 36.3858H43.4488Z" fill="#2B5480"/>
<path d="M127.973 37.0001C125.389 37.0285 122.826 36.5332 120.436 35.5435C118.224 34.6258 116.207 33.2898 114.492 31.6074C112.819 29.9507 111.495 27.9705 110.598 25.7853C109.662 23.5094 109.189 21.0669 109.207 18.6029V18.5001C109.188 16.0336 109.67 13.5894 110.622 11.3178C111.546 9.09848 112.896 7.08504 114.593 5.39288C116.29 3.70072 118.301 2.3631 120.511 1.45671C125.361 -0.485571 130.762 -0.485571 135.612 1.45671C137.823 2.37478 139.84 3.71017 141.554 5.39123C143.228 7.04986 144.553 9.03135 145.451 11.2176C146.388 13.4934 146.861 15.936 146.842 18.4V18.5001C146.86 20.9665 146.378 23.4106 145.427 25.6825C144.502 27.9023 143.152 29.916 141.455 31.6082C139.757 33.3004 137.745 34.6378 135.534 35.5435C133.134 36.5316 130.564 37.0268 127.973 37.0001ZM128.073 29.7421C129.55 29.7581 131.015 29.4627 132.372 28.8748C133.649 28.3217 134.795 27.5033 135.737 26.4731C136.674 25.4347 137.411 24.2302 137.912 22.9205C138.44 21.5436 138.705 20.0786 138.695 18.6024V18.5001C138.704 17.0157 138.439 15.5427 137.912 14.1564C137.414 12.8282 136.658 11.6133 135.69 10.5825C134.722 9.55162 133.56 8.72546 132.272 8.15208C130.918 7.54807 129.453 7.2429 127.973 7.25701C126.487 7.23751 125.013 7.53414 123.648 8.12759C122.381 8.68459 121.244 9.50267 120.309 10.5293C119.372 11.5674 118.635 12.772 118.134 14.0819C117.605 15.4586 117.339 16.9236 117.35 18.4V18.5001C117.341 19.9845 117.607 21.4575 118.134 22.8433C119.142 25.5177 121.162 27.6785 123.75 28.8503C125.11 29.4589 126.585 29.7631 128.073 29.7421Z" fill="#2B5480"/>
<path d="M153.769 4.54956C153.76 4.03148 153.856 3.51704 154.052 3.03798C154.247 2.55892 154.538 2.12542 154.907 1.76422C155.263 1.39194 155.692 1.09762 156.166 0.899562C156.641 0.7015 157.15 0.603916 157.664 0.612869H169.954C174.438 0.612869 177.878 1.82262 180.273 4.24213C182.297 6.28693 183.309 9.01241 183.308 12.4186V12.5203C183.308 15.3817 182.667 17.6896 181.386 19.4442C180.069 21.2269 178.281 22.5997 176.228 23.406L181.639 30.048C181.985 30.4874 182.29 30.9583 182.55 31.4545C182.794 31.9546 182.915 32.5067 182.903 33.064C182.921 33.5608 182.828 34.0554 182.631 34.5111C182.434 34.9667 182.138 35.3719 181.765 35.6965C181.066 36.3369 180.155 36.6915 179.21 36.6911C178.428 36.7163 177.655 36.5128 176.985 36.1051C176.373 35.7084 175.827 35.2169 175.367 34.6485L167.779 24.9387H161.558V32.7561C161.564 33.276 161.468 33.7919 161.275 34.274C161.082 34.7561 160.796 35.1948 160.433 35.5646C160.071 35.9344 159.64 36.228 159.164 36.4284C158.689 36.6288 158.179 36.7319 157.663 36.7319C157.148 36.7319 156.638 36.6288 156.162 36.4284C155.687 36.228 155.255 35.9344 154.893 35.5646C154.531 35.1948 154.245 34.7561 154.052 34.274C153.859 33.7919 153.763 33.276 153.769 32.7561V4.54956ZM169.449 17.9893C171.371 17.9893 172.846 17.5293 173.875 16.6094C174.386 16.149 174.789 15.5801 175.055 14.9437C175.322 14.3073 175.445 13.6193 175.417 12.929V12.8272C175.417 11.09 174.878 9.80392 173.799 8.96888C172.72 8.13385 171.22 7.71669 169.296 7.71741H161.558V17.9893H169.449Z" fill="#2B5480"/>
<path d="M105.937 32.9149C106.241 33.4463 106.323 34.0777 106.166 34.6702C106.008 35.2628 105.624 35.768 105.097 36.0746C104.57 36.3813 103.945 36.4643 103.357 36.3054C102.77 36.1465 102.269 35.7588 101.965 35.2274L99.4306 30.8027C98.1336 31.8418 96.6925 32.6832 95.1534 33.3002C92.8889 34.2314 90.4647 34.7029 88.0194 34.6877H87.9115C83.7509 34.7168 79.7027 33.326 76.4243 30.7412L73.8577 35.2274C73.5538 35.7588 73.0531 36.1465 72.4657 36.3054C71.8784 36.4643 71.2526 36.3813 70.726 36.0746C70.1993 35.768 69.815 35.2628 69.6575 34.6702C69.5 34.0777 69.5823 33.4463 69.8863 32.9149L73.0941 27.2877C72.2679 26.1412 71.5711 24.9053 71.0166 23.6029C70.0348 21.2103 69.5461 18.641 69.5805 16.0516C69.5286 13.7299 69.8644 11.4159 70.5739 9.20665C71.207 7.39519 72.0805 5.67866 73.1706 4.10391C73.5193 3.66811 73.9503 3.30653 74.4386 3.04016C75.1653 2.64623 75.9981 2.49775 76.8146 2.61655C77.6311 2.73534 78.3884 3.11514 78.9752 3.70018C79.3301 4.06334 79.609 4.4948 79.7954 4.96891C79.9817 5.44301 80.0716 5.95007 80.0598 6.45994C80.0763 6.92933 79.9937 7.3969 79.8176 7.83166C79.6698 8.16857 79.4962 8.4933 79.2983 8.80291C78.5236 9.84063 77.8963 10.9823 77.4344 12.1949C76.9816 13.4438 76.759 14.7656 76.7775 16.0952C76.7599 17.4995 77.0394 18.8915 77.5974 20.1782C78.1554 21.4649 78.9791 22.6167 80.0134 23.5567C81.0436 24.4835 82.2348 25.2102 83.527 25.6999C84.8947 26.2159 86.344 26.477 87.8042 26.4704H87.9121C89.3828 26.4758 90.8424 26.2149 92.2217 25.6999C93.5224 25.2158 94.7237 24.4947 95.766 23.5724C96.8155 22.6387 97.6523 21.4871 98.2192 20.1964C98.7861 18.9058 99.0697 17.5067 99.0504 16.0952C99.0849 14.6313 98.8354 13.1748 98.3159 11.8075C97.7911 10.5638 97.1027 9.39709 96.2692 8.33878C95.7058 7.6919 95.4008 6.85686 95.4133 5.99581C95.4088 5.51761 95.4997 5.04338 95.6806 4.60133C95.8614 4.15928 96.1285 3.75845 96.4661 3.42268C96.789 3.07022 97.1812 2.7895 97.6176 2.59839C98.054 2.40728 98.5251 2.30998 99.0008 2.31268C99.5631 2.30695 100.118 2.43916 100.619 2.69791C101.061 2.93455 101.455 3.25379 101.78 3.63869C103.167 5.24142 104.272 7.07151 105.049 9.04994C105.899 11.3884 106.304 13.8675 106.244 16.3574C106.267 18.8601 105.784 21.3412 104.823 23.6486C104.277 24.9601 103.58 26.2021 102.746 27.3486L105.937 32.9149Z" fill="#FFCC00"/>
<path d="M190.243 4.24428C190.234 3.72623 190.33 3.2118 190.526 2.73273C190.721 2.25367 191.012 1.82015 191.381 1.45894C192.114 0.722968 193.106 0.309814 194.14 0.309814C195.174 0.309814 196.167 0.722968 196.9 1.45894C197.268 1.81997 197.56 2.25338 197.756 2.73243C197.952 3.21149 198.049 3.72602 198.04 4.24428V14.7692H212.419V4.24428C212.411 3.72634 212.508 3.21212 212.703 2.73316C212.899 2.2542 213.189 1.8206 213.557 1.45894C214.29 0.722968 215.282 0.309814 216.317 0.309814C217.351 0.309814 218.343 0.722968 219.076 1.45894C219.445 1.81997 219.736 2.25338 219.932 2.73243C220.129 3.21149 220.225 3.72602 220.217 4.24428V32.7561C220.217 33.7993 219.806 34.7997 219.075 35.5374C218.344 36.2751 217.352 36.6895 216.318 36.6895C215.284 36.6895 214.293 36.2751 213.561 35.5374C212.83 34.7997 212.419 33.7993 212.419 32.7561V22.0255H198.04V32.7561C198.04 33.7993 197.63 34.7997 196.899 35.5374C196.167 36.2751 195.176 36.6895 194.142 36.6895C193.108 36.6895 192.116 36.2751 191.385 35.5374C190.654 34.7997 190.243 33.7993 190.243 32.7561V4.24428Z" fill="#2B5480"/>
<path d="M245.938 37C243.351 37.0285 240.785 36.5332 238.391 35.5434C236.178 34.6254 234.158 33.2894 232.442 31.6072C230.768 29.9492 229.442 27.9675 228.545 25.7808C227.606 23.5069 227.133 21.0653 227.151 18.6023V18.5C227.133 16.0333 227.616 13.5889 228.57 11.3176C229.495 9.09765 230.846 7.08384 232.545 5.39167C234.244 3.69951 236.257 2.36225 238.469 1.45659C243.323 -0.48553 248.729 -0.48553 253.583 1.45659C255.796 2.37467 257.815 3.71002 259.532 5.3911C261.207 7.04883 262.532 9.03055 263.429 11.2175C264.368 13.4928 264.842 15.9356 264.823 18.3999V18.5C264.841 20.9666 264.358 23.4109 263.405 25.6823C262.48 27.9032 261.13 29.9179 259.431 31.6105C257.732 33.3031 255.719 34.6402 253.506 35.545C251.104 36.5328 248.531 37.0274 245.938 37ZM246.04 29.742C247.518 29.7564 248.983 29.4611 250.341 28.8747C251.619 28.3216 252.767 27.5033 253.71 26.4729C254.647 25.4348 255.384 24.2302 255.886 22.9204C256.414 21.5437 256.681 20.0787 256.671 18.6023V18.5C256.679 17.0154 256.413 15.5423 255.886 14.1563C255.386 12.8275 254.63 11.6123 253.66 10.5814C252.691 9.55044 251.528 8.72442 250.239 8.15141C248.885 7.54745 247.418 7.24228 245.937 7.25634C244.45 7.23646 242.974 7.5331 241.608 8.12693C240.34 8.68376 239.201 9.50183 238.264 10.5287C237.327 11.5667 236.59 12.7713 236.089 14.0812C235.559 15.4576 235.293 16.9228 235.304 18.3993V18.5C235.294 19.9845 235.56 21.4577 236.089 22.8431C236.589 24.1676 237.342 25.3797 238.307 26.41C239.272 27.4403 240.428 28.2686 241.71 28.8475C243.072 29.4585 244.55 29.7637 246.04 29.742Z" fill="#2B5480"/>
<path d="M271.757 4.34325C271.749 3.82528 271.846 3.31104 272.042 2.83227C272.238 2.35349 272.529 1.92034 272.897 1.55954C273.255 1.18747 273.685 0.893369 274.159 0.695426C274.634 0.497484 275.144 0.399908 275.658 0.408732H276.517C277.268 0.382496 278.01 0.587444 278.643 0.996379C279.209 1.38006 279.691 1.8756 280.062 2.45298L289.481 17.938L298.947 2.40184C299.293 1.7789 299.803 1.26376 300.419 0.912376C301.036 0.560992 301.736 0.386803 302.444 0.408732H303.303C303.817 0.399594 304.327 0.497029 304.801 0.694992C305.276 0.892955 305.705 1.18722 306.063 1.55954C306.431 1.92024 306.723 2.35336 306.919 2.83215C307.115 3.31094 307.212 3.82523 307.203 4.34325V32.756C307.205 33.273 307.105 33.7851 306.909 34.263C306.713 34.7408 306.426 35.175 306.064 35.5404C305.701 35.9059 305.271 36.1955 304.797 36.3926C304.323 36.5897 303.816 36.6904 303.303 36.6889C302.794 36.6989 302.288 36.602 301.818 36.4045C301.348 36.207 300.923 35.913 300.572 35.5413C300.209 35.1767 299.924 34.7421 299.732 34.2635C299.54 33.7849 299.446 33.2721 299.456 32.756V14.922L292.618 25.553C292.252 26.1246 291.779 26.6193 291.226 27.0096C290.673 27.3601 290.032 27.546 289.378 27.546C288.725 27.546 288.084 27.3601 287.531 27.0096C286.976 26.6203 286.503 26.1254 286.137 25.553L279.403 15.076V32.861C279.416 33.3693 279.323 33.8747 279.132 34.3451C278.94 34.8155 278.654 35.2406 278.291 35.5936C277.932 35.9524 277.504 36.2345 277.034 36.423C276.564 36.6116 276.061 36.7027 275.556 36.691C275.054 36.7016 274.556 36.6097 274.091 36.421C273.625 36.2322 273.202 35.9505 272.848 35.5928C272.493 35.235 272.214 34.8086 272.026 34.3392C271.839 33.8697 271.748 33.3669 271.758 32.861L271.757 4.34325Z" fill="#2B5480"/>
<path d="M319.609 36.3857C319.097 36.3864 318.589 36.285 318.116 36.0874C317.642 35.8898 317.212 35.5999 316.849 35.2342C316.487 34.8686 316.2 34.4344 316.004 33.9566C315.808 33.4787 315.708 32.9666 315.709 32.4496V4.5494C315.7 4.03111 315.797 3.51652 315.993 3.03744C316.189 2.55836 316.481 2.12497 316.849 1.76406C317.207 1.3918 317.636 1.09754 318.111 0.899493C318.586 0.701447 319.096 0.603838 319.609 0.612711H339.255C339.715 0.603628 340.173 0.689738 340.6 0.865748C341.026 1.04176 341.413 1.30395 341.735 1.6362C342.064 1.96177 342.323 2.35178 342.497 2.78222C342.671 3.21267 342.756 3.67445 342.746 4.13914C342.757 4.60057 342.673 5.05934 342.499 5.48623C342.325 5.91313 342.065 6.29879 341.735 6.61868C341.409 6.94397 341.021 7.19982 340.595 7.37106C340.169 7.54229 339.713 7.62542 339.255 7.61551H323.457V14.8719H336.977C337.437 14.8675 337.893 14.9557 338.319 15.1314C338.745 15.3071 339.132 15.5667 339.457 15.895C339.782 16.2233 340.039 16.6138 340.213 17.0435C340.387 17.4732 340.474 17.9336 340.469 18.3977C340.481 18.8591 340.396 19.3178 340.222 19.7443C340.047 20.1709 339.786 20.5559 339.455 20.8746C339.129 21.2006 338.742 21.457 338.315 21.6285C337.889 21.7999 337.433 21.8829 336.974 21.8725H323.454V29.3824H339.505C339.966 29.3773 340.423 29.4651 340.849 29.6406C341.276 29.8162 341.663 30.076 341.989 30.4047C342.314 30.7334 342.571 31.1244 342.745 31.5548C342.919 31.9852 343.005 32.4463 343 32.911C343.011 33.3724 342.927 33.8311 342.753 34.258C342.579 34.6849 342.319 35.0706 341.989 35.3905C341.663 35.7156 341.275 35.9712 340.849 36.1421C340.423 36.3131 339.967 36.3959 339.509 36.3857H319.609Z" fill="#2B5480"/>
</g>
<defs>
<clipPath id="clip0_1618_14105">
<rect width="343" height="37" fill="white"/>
</clipPath>
</defs>
</svg>
