<svg width="636" height="68" viewBox="0 0 636 68" fill="none" xmlns="http://www.w3.org/2000/svg">
<path d="M-4.26045e-06 8.361C-0.0168982 7.40892 0.161529 6.46348 0.524264 5.58305C0.886998 4.70261 1.42634 3.90587 2.109 3.242C2.77085 2.55787 3.56621 2.01702 4.44575 1.65303C5.3253 1.28903 6.27025 1.10965 7.222 1.126H25.6C30.4206 1.07165 35.209 1.91641 39.72 3.617C43.8264 5.16658 47.5866 7.51138 50.785 10.517C53.8695 13.4443 56.313 16.9798 57.961 20.9C59.6719 24.9888 60.5337 29.3828 60.494 33.815V34C60.5306 38.4474 59.6691 42.8565 57.961 46.963C56.3217 50.8993 53.8774 54.4493 50.785 57.385C47.5824 60.398 43.8243 62.7592 39.72 64.337C35.216 66.0674 30.4246 66.9272 25.6 66.871H7.222C6.27025 66.8874 5.3253 66.708 4.44575 66.344C3.56621 65.98 2.77085 65.4391 2.109 64.755C1.42599 64.0916 0.886398 63.2951 0.523633 62.4148C0.160868 61.5344 -0.0173547 60.589 -4.26045e-06 59.637V8.361ZM25.6 53.818C28.3527 53.8511 31.0877 53.373 33.666 52.408C36.0126 51.5298 38.1405 50.1528 39.903 48.372C41.6396 46.5887 43.0097 44.4824 43.936 42.172C44.9358 39.6314 45.4297 36.92 45.39 34.19V34C45.4179 31.2707 44.9244 28.5612 43.936 26.017C43.0271 23.6699 41.6556 21.5295 39.903 19.723C38.1337 17.939 36.0086 16.5475 33.666 15.639C31.0946 14.6443 28.3569 14.1498 25.6 14.182H14.443V53.818H25.6Z" fill="#2B5480"/>
<path d="M80.564 66.8713C79.6143 66.8723 78.6738 66.6858 77.7964 66.3225C76.919 65.9592 76.122 65.4262 75.451 64.754C74.7801 64.0819 74.2485 63.2839 73.8868 62.4059C73.525 61.5278 73.3403 60.5869 73.343 59.6373V8.36127C73.3261 7.40919 73.5046 6.46375 73.8673 5.58332C74.23 4.70288 74.7694 3.90614 75.452 3.24227C76.1137 2.55821 76.9089 2.01741 77.7883 1.65342C78.6676 1.28942 79.6124 1.11 80.564 1.12627H116.955C117.809 1.10904 118.657 1.26707 119.447 1.59061C120.237 1.91414 120.953 2.39629 121.549 3.00727C122.159 3.60528 122.641 4.3219 122.964 5.11301C123.287 5.90411 123.444 6.75295 123.427 7.60727C123.448 8.45561 123.291 9.29893 122.968 10.0835C122.644 10.8681 122.161 11.5767 121.549 12.1643C120.946 12.7632 120.228 13.2345 119.439 13.5499C118.65 13.8654 117.805 14.0185 116.955 14.0003H87.691V27.3323H112.733C113.586 27.3234 114.432 27.4851 115.222 27.8077C116.012 28.1303 116.729 28.6074 117.332 29.211C117.935 29.8146 118.411 30.5325 118.733 31.3227C119.054 32.1128 119.215 32.9592 119.205 33.8123C119.225 34.66 119.069 35.5028 118.746 36.2869C118.424 37.0711 117.941 37.7795 117.33 38.3673C116.725 38.9656 116.007 39.4361 115.216 39.7507C114.426 40.0653 113.58 40.2175 112.73 40.1983H87.691V54.0073H117.422C118.275 53.9977 119.121 54.1588 119.911 54.4811C120.701 54.8034 121.419 55.2803 122.021 55.8838C122.624 56.4874 123.1 57.2054 123.422 57.9956C123.743 58.7858 123.903 59.6323 123.893 60.4853C123.914 61.3334 123.759 62.1766 123.436 62.9612C123.113 63.7458 122.631 64.4545 122.019 65.0423C121.415 65.6407 120.696 66.1111 119.905 66.4254C119.115 66.7397 118.269 66.8913 117.419 66.8713H80.564Z" fill="#2B5480"/>
<path d="M237.291 68.0002C232.5 68.0525 227.747 67.1421 223.315 65.3232C219.214 63.6366 215.473 61.1812 212.295 58.0892C209.193 55.0445 206.736 51.4053 205.073 47.3892C203.338 43.2064 202.461 38.7176 202.494 34.1892V34.0002C202.46 29.4672 203.353 24.9751 205.119 20.8002C206.833 16.7215 209.334 13.0212 212.481 9.91124C215.627 6.80131 219.357 4.34299 223.455 2.6772C232.447 -0.8924 242.463 -0.8924 251.455 2.6772C255.555 4.36445 259.295 6.8187 262.474 9.9082C265.577 12.9565 268.034 16.5982 269.7 20.6162C271.436 24.7988 272.313 29.2878 272.279 33.8162V34.0002C272.312 38.533 271.419 43.0248 269.654 47.2002C267.94 51.2798 265.437 54.9808 262.289 58.0908C259.141 61.2008 255.41 63.6586 251.31 65.3232C246.862 67.1392 242.096 68.0493 237.291 68.0002ZM237.477 54.6612C240.216 54.6906 242.931 54.1477 245.448 53.0672C247.815 52.0506 249.941 50.5466 251.688 48.6532C253.424 46.7449 254.792 44.5311 255.721 42.1242C256.699 39.5936 257.192 36.9012 257.172 34.1882V34.0002C257.189 31.2722 256.697 28.5649 255.721 26.0172C254.797 23.5761 253.396 21.3433 251.6 19.4488C249.805 17.5543 247.65 16.036 245.262 14.9822C242.753 13.8721 240.035 13.3113 237.291 13.3372C234.535 13.3014 231.802 13.8465 229.271 14.9372C226.922 15.9609 224.813 17.4644 223.08 19.3512C221.343 21.259 219.975 23.4729 219.047 25.8802C218.067 28.4103 217.573 31.1029 217.593 33.8162V34.0002C217.576 36.7282 218.069 39.4353 219.047 41.9822C220.917 46.8974 224.662 50.8685 229.46 53.0222C231.983 54.1407 234.718 54.6998 237.477 54.6612Z" fill="#2B5480"/>
<path d="M285.122 8.36104C285.105 7.40889 285.284 6.46343 285.647 5.583C286.01 4.70257 286.549 3.90586 287.232 3.24204C287.894 2.55784 288.689 2.01694 289.568 1.65293C290.448 1.28893 291.392 1.10958 292.344 1.12604H315.133C323.448 1.12604 329.827 3.34937 334.268 7.79604C338.02 11.554 339.896 16.563 339.895 22.823V23.01C339.895 28.2687 338.707 32.5104 336.331 35.735C333.889 39.0112 330.574 41.5343 326.766 43.016L336.8 55.223C337.442 56.0306 338.007 56.896 338.489 57.808C338.942 58.727 339.167 59.7417 339.144 60.766C339.178 61.6791 339.005 62.588 338.64 63.4254C338.275 64.2629 337.726 65.0075 337.034 65.604C335.737 66.781 334.048 67.4327 332.297 67.432C330.846 67.4783 329.413 67.1043 328.17 66.355C327.035 65.626 326.023 64.7226 325.17 63.678L311.1 45.833H299.565V60.2C299.576 61.1555 299.398 62.1038 299.04 62.9898C298.682 63.8758 298.152 64.682 297.48 65.3616C296.809 66.0413 296.009 66.5808 295.127 66.9491C294.245 67.3174 293.299 67.507 292.344 67.507C291.388 67.507 290.442 67.3174 289.56 66.9491C288.678 66.5808 287.879 66.0413 287.207 65.3616C286.535 64.682 286.005 63.8758 285.647 62.9898C285.289 62.1038 285.111 61.1555 285.122 60.2V8.36104ZM314.197 33.061C317.761 33.061 320.497 32.2157 322.404 30.525C323.351 29.6789 324.098 28.6334 324.592 27.4638C325.087 26.2943 325.316 25.0297 325.263 23.761V23.574C325.263 20.3814 324.263 18.0177 322.263 16.483C320.263 14.9484 317.48 14.1817 313.914 14.183H299.565V33.061H314.197Z" fill="#2B5480"/>
<path d="M196.431 60.4923C196.995 61.4689 197.147 62.6293 196.855 63.7183C196.563 64.8073 195.851 65.7357 194.874 66.2993C193.897 66.8629 192.737 67.0155 191.648 66.7235C190.559 66.4315 189.631 65.7189 189.067 64.7423L184.367 56.6103C181.962 58.52 179.29 60.0665 176.436 61.2003C172.237 62.9117 167.742 63.7782 163.208 63.7503H163.008C155.293 63.8039 147.787 61.2479 141.708 56.4973L136.949 64.7423C136.385 65.7189 135.457 66.4315 134.368 66.7235C133.279 67.0155 132.119 66.8629 131.142 66.2993C130.165 65.7357 129.453 64.8073 129.161 63.7183C128.869 62.6293 129.021 61.4689 129.585 60.4923L135.533 50.1503C134.001 48.0433 132.709 45.7719 131.681 43.3783C129.86 38.9811 128.954 34.2591 129.018 29.5003C128.922 25.2333 129.545 20.9806 130.86 16.9203C132.034 13.5912 133.654 10.4365 135.675 7.54233C136.321 6.7414 137.121 6.07687 138.026 5.58733C139.374 4.86334 140.918 4.59047 142.432 4.80879C143.946 5.02711 145.35 5.72512 146.438 6.80033C147.096 7.46776 147.613 8.26072 147.959 9.13204C148.304 10.0034 148.471 10.9353 148.449 11.8723C148.48 12.735 148.327 13.5943 148 14.3933C147.726 15.0125 147.404 15.6093 147.037 16.1783C145.601 18.0855 144.437 20.1837 143.581 22.4123C142.741 24.7074 142.329 27.1367 142.363 29.5803C142.33 32.1613 142.849 34.7195 143.883 37.0843C144.918 39.449 146.445 41.5658 148.363 43.2933C150.273 44.9967 152.482 46.3322 154.878 47.2323C157.414 48.1806 160.101 48.6604 162.809 48.6483H163.009C165.736 48.6583 168.443 48.1787 171 47.2323C173.412 46.3426 175.639 45.0173 177.572 43.3223C179.518 41.6063 181.07 39.4897 182.121 37.1178C183.172 34.7458 183.698 32.1745 183.662 29.5803C183.726 26.89 183.263 24.2131 182.3 21.7003C181.327 19.4146 180.05 17.2703 178.505 15.3253C177.46 14.1365 176.895 12.6018 176.918 11.0193C176.91 10.1405 177.078 9.26891 177.414 8.4565C177.749 7.64409 178.244 6.90742 178.87 6.29033C179.469 5.64258 180.196 5.12665 181.005 4.77542C181.814 4.4242 182.688 4.24537 183.57 4.25033C184.613 4.2398 185.642 4.48277 186.57 4.95833C187.391 5.39322 188.121 5.97994 188.723 6.68733C191.295 9.63288 193.345 12.9963 194.784 16.6323C196.36 20.93 197.112 25.4862 197 30.0623C197.044 34.6618 196.147 39.2216 194.366 43.4623C193.354 45.8727 192.061 48.1552 190.514 50.2623L196.431 60.4923Z" fill="#FFCC00"/>
<path d="M352.754 7.80025C352.737 6.84816 352.915 5.90271 353.278 5.02226C353.641 4.14182 354.18 3.34508 354.863 2.68125C356.223 1.32864 358.062 0.569336 359.98 0.569336C361.898 0.569336 363.738 1.32864 365.097 2.68125C365.781 3.34475 366.321 4.14129 366.685 5.02171C367.048 5.90214 367.228 6.84777 367.212 7.80025V27.1432H393.874V7.80025C393.858 6.84835 394.037 5.9033 394.4 5.02305C394.763 4.1428 395.301 3.34591 395.983 2.68125C397.343 1.32864 399.182 0.569336 401.1 0.569336C403.018 0.569336 404.858 1.32864 406.217 2.68125C406.901 3.34475 407.441 4.14129 407.805 5.02171C408.168 5.90214 408.348 6.84777 408.332 7.80025V60.2002C408.332 62.1175 407.57 63.9562 406.215 65.3119C404.859 66.6676 403.02 67.4293 401.103 67.4293C399.186 67.4293 397.347 66.6676 395.991 65.3119C394.636 63.9562 393.874 62.1175 393.874 60.2002V40.4792H367.212V60.2002C367.212 62.1175 366.45 63.9562 365.095 65.3119C363.739 66.6676 361.9 67.4293 359.983 67.4293C358.066 67.4293 356.227 66.6676 354.871 65.3119C353.516 63.9562 352.754 62.1175 352.754 60.2002V7.80025Z" fill="#2B5480"/>
<path d="M456.025 68C451.228 68.0523 446.47 67.142 442.031 65.323C437.927 63.6359 434.183 61.1806 431 58.089C427.896 55.0417 425.438 51.3998 423.774 47.381C422.034 43.2018 421.155 38.7147 421.19 34.188V34C421.156 29.4666 422.051 24.9743 423.82 20.8C425.537 16.72 428.041 13.019 431.191 9.90902C434.341 6.79909 438.074 4.34144 442.175 2.67697C451.176 -0.892325 461.2 -0.892325 470.201 2.67697C474.304 4.36426 478.048 6.81841 481.232 9.90797C484.337 12.9546 486.795 16.5967 488.458 20.616C490.198 24.7975 491.077 29.287 491.042 33.816V34C491.075 38.5333 490.18 43.0254 488.412 47.2C486.698 51.2816 484.194 54.9843 481.044 58.095C477.894 61.2057 474.161 63.6631 470.058 65.326C465.605 67.1413 460.834 68.0504 456.025 68ZM456.214 54.661C458.954 54.6875 461.67 54.1447 464.19 53.067C466.559 52.0505 468.687 50.5465 470.436 48.653C472.173 46.745 473.541 44.5311 474.47 42.124C475.45 39.5937 475.944 36.9013 475.926 34.188V34C475.942 31.2716 475.448 28.5642 474.47 26.017C473.544 23.5749 472.142 21.3415 470.344 19.4468C468.546 17.5522 466.39 16.0341 464 14.981C461.489 13.871 458.769 13.3101 456.024 13.336C453.265 13.2994 450.53 13.8446 447.996 14.936C445.644 15.9593 443.533 17.4628 441.796 19.35C440.059 21.2578 438.691 23.4716 437.762 25.879C436.78 28.4085 436.286 31.1014 436.307 33.815V34C436.288 36.7282 436.782 39.4358 437.762 41.982C438.689 44.4162 440.087 46.6438 441.875 48.5373C443.664 50.4308 445.808 51.953 448.186 53.017C450.711 54.1399 453.451 54.7008 456.214 54.661Z" fill="#2B5480"/>
<path d="M503.9 7.98218C503.884 7.03024 504.064 6.08516 504.427 5.20525C504.791 4.32534 505.331 3.52928 506.014 2.86618C506.677 2.18238 507.473 1.64187 508.354 1.27808C509.234 0.914295 510.18 0.734966 511.132 0.751184H512.725C514.118 0.702965 515.494 1.07963 516.668 1.83118C517.717 2.53633 518.612 3.44705 519.298 4.50818L536.764 32.9672L554.315 4.41418C554.958 3.26933 555.903 2.32258 557.046 1.6768C558.189 1.03101 559.488 0.710881 560.8 0.751184H562.393C563.345 0.734389 564.291 0.913458 565.171 1.27728C566.051 1.64111 566.847 2.18192 567.51 2.86618C568.194 3.52908 568.734 4.32509 569.098 5.20503C569.461 6.08497 569.641 7.03015 569.625 7.98218V60.2002C569.627 61.1503 569.442 62.0916 569.079 62.9698C568.716 63.848 568.184 64.6459 567.512 65.3176C566.84 65.9893 566.041 66.5215 565.163 66.8837C564.285 67.2459 563.343 67.431 562.393 67.4282C561.449 67.4466 560.511 67.2686 559.639 66.9056C558.767 66.5425 557.98 66.0023 557.328 65.3192C556.656 64.6491 556.127 63.8503 555.771 62.9707C555.416 62.0911 555.242 61.1488 555.259 60.2002V27.4242L542.58 46.9622C541.901 48.0128 541.025 48.9219 540 49.6392C538.973 50.2834 537.786 50.6251 536.574 50.6251C535.361 50.6251 534.174 50.2834 533.147 49.6392C532.119 48.9237 531.242 48.0143 530.563 46.9622L518.077 27.7072V60.3932C518.1 61.3274 517.928 62.2563 517.574 63.1208C517.219 63.9853 516.688 64.7666 516.015 65.4152C515.348 66.0746 514.556 66.5931 513.684 66.9396C512.813 67.2862 511.881 67.4537 510.943 67.4322C510.013 67.4515 509.089 67.2827 508.226 66.9358C507.363 66.589 506.579 66.0712 505.922 65.4137C505.264 64.7563 504.746 63.9726 504.399 63.1098C504.051 62.2471 503.882 61.323 503.901 60.3932L503.9 7.98218Z" fill="#2B5480"/>
<path d="M592.628 66.8712C591.678 66.8724 590.737 66.6861 589.859 66.3229C588.981 65.9598 588.183 65.4269 587.511 64.7549C586.839 64.0829 586.306 63.285 585.944 62.4068C585.581 61.5286 585.395 60.5874 585.396 59.6372V8.3612C585.38 7.40867 585.559 6.46293 585.923 5.58245C586.287 4.70198 586.827 3.90548 587.511 3.2422C588.174 2.55804 588.97 2.01723 589.85 1.65325C590.73 1.28928 591.676 1.10989 592.628 1.1262H629.055C629.91 1.1095 630.758 1.26776 631.549 1.59124C632.341 1.91471 633.057 2.39657 633.655 3.0072C634.265 3.60555 634.745 4.32232 635.068 5.11341C635.39 5.9045 635.547 6.75317 635.529 7.6072C635.55 8.45524 635.394 9.29838 635.072 10.0829C634.749 10.8675 634.267 11.5763 633.655 12.1642C633.05 12.762 632.331 13.2322 631.541 13.5469C630.751 13.8616 629.905 14.0144 629.055 13.9962H599.762V27.3322H624.832C625.685 27.3242 626.531 27.4863 627.321 27.8092C628.11 28.1321 628.827 28.6092 629.43 29.2126C630.033 29.816 630.51 30.5336 630.832 31.3233C631.154 32.1131 631.316 32.9592 631.307 33.8122C631.328 34.6601 631.172 35.5031 630.848 36.287C630.525 37.0709 630.04 37.7785 629.427 38.3642C628.823 38.9634 628.104 39.4347 627.314 39.7498C626.524 40.0649 625.678 40.2174 624.827 40.1982H599.757V54.0002H629.52C630.374 53.9908 631.221 54.1522 632.012 54.4748C632.803 54.7975 633.521 55.2749 634.125 55.879C634.728 56.4831 635.205 57.2018 635.527 57.9928C635.849 58.7838 636.01 59.6312 636 60.4852C636.021 61.3332 635.865 62.1763 635.542 62.9608C635.22 63.7453 634.737 64.4541 634.126 65.0422C633.521 65.6396 632.802 66.1093 632.012 66.4235C631.221 66.7377 630.376 66.8899 629.526 66.8712H592.628Z" fill="#2B5480"/>
</svg>
