<svg width="120" height="48" viewBox="0 0 120 48" fill="none" xmlns="http://www.w3.org/2000/svg">
<g clip-path="url(#clip0_1055_2729)">
<path d="M2.41262e-06 2.95081C-0.00581523 2.6147 0.0572827 2.28096 0.185405 1.97018C0.313527 1.65939 0.503956 1.37816 0.744947 1.14381C0.978769 0.902751 1.25963 0.71232 1.57011 0.584336C1.88059 0.456351 2.21405 0.393543 2.54981 0.39981H9.03833C10.7397 0.380468 12.4298 0.678562 14.022 1.27881C15.4717 1.82504 16.7993 2.65219 17.9287 3.71281C19.0175 4.74519 19.88 5.99255 20.4615 7.37581C21.0653 8.81883 21.3695 10.3696 21.3554 11.9338V11.9998C21.3684 13.5698 21.0643 15.1262 20.4615 16.5758C19.8828 17.965 19.0201 19.2178 17.9287 20.2538C16.7978 21.3174 15.471 22.1508 14.022 22.7078C12.4322 23.3184 10.7411 23.6217 9.03833 23.6018H2.54981C2.21474 23.6071 1.88215 23.5437 1.57257 23.4154C1.26299 23.2871 0.983018 23.0966 0.749946 22.8558C0.507784 22.6219 0.316261 22.3407 0.187256 22.0297C0.0582507 21.7187 -0.00548466 21.3845 2.41262e-06 21.0478V2.95081ZM9.03833 18.9998C10.0104 19.0109 10.976 18.8413 11.8861 18.4998C12.7135 18.1894 13.4639 17.7036 14.086 17.0758C14.6988 16.446 15.1826 15.7024 15.5098 14.8868C15.8625 13.9898 16.0367 13.0326 16.0228 12.0688V11.9998C16.0324 11.0367 15.8583 10.0807 15.5098 9.18281C15.1888 8.35456 14.7046 7.59927 14.086 6.96181C13.4617 6.33242 12.7123 5.84115 11.8861 5.51981C10.9782 5.16881 10.0116 4.99436 9.03833 5.00581H5.09962V18.9998H9.03833Z" fill="#2B5480"/>
<path d="M28.4409 23.5999C28.1056 23.6005 27.7736 23.5349 27.4638 23.4068C27.154 23.2787 26.8726 23.0906 26.6357 22.8534C26.3988 22.6161 26.2112 22.3344 26.0836 22.0243C25.9559 21.7143 25.8909 21.3821 25.892 21.0469V2.95088C25.8861 2.61484 25.949 2.28115 26.077 1.97037C26.2049 1.65959 26.3952 1.37831 26.636 1.14388C26.8699 0.902966 27.1508 0.712631 27.4613 0.584657C27.7717 0.456682 28.1051 0.393793 28.4409 0.399881H41.2879C41.5892 0.393677 41.8886 0.44931 42.1675 0.563343C42.4465 0.677375 42.6991 0.847388 42.9098 1.06288C43.1254 1.27392 43.2954 1.5269 43.4094 1.80622C43.5235 2.08553 43.579 2.38525 43.5727 2.68688C43.58 2.98626 43.5248 3.28388 43.4107 3.56074C43.2965 3.8376 43.1259 4.08763 42.9098 4.29488C42.6967 4.50607 42.4433 4.67219 42.1646 4.78335C41.886 4.89451 41.5878 4.94842 41.2879 4.94188H30.9567V9.64688H39.797C40.098 9.6438 40.3966 9.70087 40.6753 9.81475C40.954 9.92863 41.2071 10.097 41.4199 10.31C41.6326 10.5231 41.8006 10.7764 41.9141 11.0553C42.0276 11.3341 42.0843 11.6328 42.0808 11.9339C42.0881 12.233 42.0329 12.5304 41.919 12.807C41.805 13.0837 41.6347 13.3336 41.4189 13.5409C41.2058 13.752 40.9524 13.9181 40.6737 14.0293C40.3951 14.1404 40.0969 14.1944 39.797 14.1879H30.9567V19.0609H41.4559C41.757 19.0577 42.0557 19.1146 42.3345 19.2285C42.6133 19.3423 42.8666 19.5106 43.0794 19.7237C43.2922 19.9367 43.4604 20.1901 43.5739 20.469C43.6875 20.748 43.7442 21.0468 43.7407 21.3479C43.7479 21.6472 43.6928 21.9447 43.5789 22.2215C43.4649 22.4983 43.2946 22.7484 43.0788 22.9559C42.8654 23.1669 42.6118 23.3327 42.333 23.4436C42.0541 23.5544 41.7558 23.6079 41.4559 23.6009L28.4409 23.5999Z" fill="#2B5480"/>
<path d="M83.7698 23.9999C82.0783 24.0181 80.4003 23.6968 78.8352 23.0549C77.3877 22.4596 76.0674 21.5931 74.9455 20.5019C73.8498 19.4275 72.9825 18.1428 72.3957 16.7249C71.7835 15.2485 71.474 13.6641 71.4857 12.0659V11.9999C71.474 10.4007 71.7891 8.81592 72.4117 7.34286C73.0163 5.90241 73.8994 4.59554 75.0103 3.49726C76.1212 2.39898 77.438 1.53091 78.8852 0.942859C82.0595 -0.316891 85.5951 -0.316891 88.7694 0.942859C90.2169 1.53981 91.5372 2.40769 92.6592 3.49986C93.7544 4.57539 94.6216 5.86065 95.209 7.27886C95.8214 8.75485 96.1308 10.3389 96.1189 11.9369V11.9999C96.1304 13.5997 95.8153 15.185 95.193 16.6589C94.5884 18.0995 93.7052 19.4065 92.5941 20.5048C91.483 21.6031 90.1659 22.4711 88.7184 23.0589C87.1478 23.6983 85.4655 24.0182 83.7698 23.9999ZM83.8348 19.2919C84.8019 19.3023 85.7606 19.1109 86.6496 18.7299C87.4837 18.37 88.2331 17.8392 88.8494 17.1719C89.4614 16.4995 89.9438 15.7197 90.2723 14.8719C90.618 13.9791 90.792 13.0292 90.7853 12.0719V11.9999C90.791 11.0371 90.617 10.0818 90.2723 9.18286C89.9463 8.32154 89.4523 7.53363 88.819 6.86496C88.1858 6.19629 87.4259 5.6602 86.5836 5.28786C85.6979 4.89561 84.7385 4.69751 83.7698 4.70686C82.7969 4.69393 81.8321 4.88575 80.938 5.26986C80.1092 5.63187 79.3648 6.16246 78.7522 6.82786C78.1399 7.5 77.6574 8.27984 77.3293 9.12786C76.9829 10.0204 76.8085 10.9705 76.8153 11.9279V11.9999C76.8093 12.963 76.9836 13.9188 77.3293 14.8179C77.6558 15.6775 78.1485 16.4644 78.7792 17.1336C79.4099 17.8028 80.1662 18.3411 81.005 18.7179C81.8958 19.1112 82.8612 19.307 83.8348 19.2919Z" fill="#2B5480"/>
<path d="M100.656 2.95083C100.65 2.61479 100.713 2.2811 100.84 1.97032C100.968 1.65954 101.159 1.37827 101.399 1.14383C101.633 0.902822 101.914 0.712423 102.225 0.584442C102.535 0.456461 102.869 0.393626 103.204 0.399833H111.25C114.183 0.399833 116.434 1.1845 118.004 2.75383C118.678 3.4563 119.201 4.28857 119.543 5.19992C119.885 6.11128 120.037 7.08264 119.991 8.05483V8.12083C120.068 9.7147 119.626 11.2905 118.733 12.6128C117.87 13.7685 116.7 14.6587 115.356 15.1818L118.899 19.4898C119.127 19.7751 119.328 20.0808 119.499 20.4028C119.659 20.7272 119.738 21.0853 119.73 21.4468C119.742 21.769 119.681 22.0898 119.552 22.3853C119.423 22.6808 119.23 22.9435 118.985 23.1538C118.527 23.5694 117.931 23.7997 117.313 23.7998C116.801 23.8161 116.295 23.6837 115.856 23.4188C115.456 23.1617 115.098 22.8432 114.796 22.4748L109.83 16.1748H105.758V21.2468C105.758 21.9231 105.49 22.5717 105.011 23.05C104.533 23.5282 103.885 23.7968 103.208 23.7968C102.532 23.7968 101.884 23.5282 101.405 23.05C100.927 22.5717 100.659 21.9231 100.659 21.2468L100.656 2.95083ZM110.919 11.6688C111.963 11.7379 112.997 11.4172 113.819 10.7688C114.153 10.4703 114.417 10.1014 114.591 9.68861C114.765 9.27585 114.846 8.82955 114.827 8.38183V8.31983C114.864 7.84878 114.787 7.37585 114.603 6.94081C114.418 6.50577 114.132 6.12134 113.769 5.81983C112.903 5.23079 111.866 4.94492 110.821 5.00683H105.756V11.6708L110.919 11.6688Z" fill="#2B5480"/>
<path d="M69.3449 21.3501C69.5438 21.6949 69.5976 22.1046 69.4945 22.489C69.3913 22.8735 69.1397 23.2012 68.795 23.4001C68.4502 23.599 68.0406 23.6528 67.6561 23.5497C67.2717 23.4465 66.944 23.1949 66.7451 22.8501L65.0852 19.9801C64.2363 20.6542 63.293 21.2001 62.2855 21.6001C60.8032 22.2042 59.2164 22.51 57.6158 22.5001H57.5458C54.8224 22.5192 52.1725 21.617 50.0264 19.9401L48.3465 22.8501C48.248 23.0208 48.1169 23.1705 47.9606 23.2905C47.8042 23.4106 47.6258 23.4986 47.4355 23.5497C47.051 23.6528 46.6414 23.599 46.2966 23.4001C45.9519 23.2012 45.7003 22.8735 45.5971 22.489C45.494 22.1046 45.5478 21.6949 45.7467 21.3501L47.8465 17.7001C47.3057 16.9565 46.8496 16.1549 46.4866 15.3101C45.8438 13.7576 45.524 12.0903 45.5467 10.4101C45.5127 8.90413 45.7324 7.40316 46.1967 5.97012C46.6112 4.79506 47.183 3.6816 47.8965 2.66012C48.1249 2.37761 48.407 2.1431 48.7265 1.97012C49.0934 1.76699 49.5071 1.66356 49.9264 1.67012C50.2559 1.66243 50.5834 1.72336 50.8881 1.84903C51.1927 1.9747 51.468 2.16237 51.6962 2.40012C51.9285 2.63564 52.1111 2.91548 52.2331 3.22299C52.355 3.5305 52.4139 3.8594 52.4062 4.19012C52.4166 4.49478 52.3621 4.79818 52.2462 5.08012C52.1495 5.29868 52.0358 5.50932 51.9062 5.71012C51.3992 6.38308 50.9885 7.12356 50.6863 7.91012C50.3899 8.72017 50.2442 9.57762 50.2563 10.4401C50.2448 11.3513 50.4279 12.2544 50.7935 13.0891C51.1591 13.9238 51.6987 14.6708 52.3762 15.2801C53.0506 15.8812 53.8303 16.3525 54.676 16.6701C55.5714 17.0048 56.52 17.1742 57.4758 17.1701H57.5458C58.5081 17.1734 59.4631 17.004 60.3656 16.6701C61.2169 16.3563 62.0033 15.8885 62.6854 15.2901C63.3724 14.6846 63.9202 13.9377 64.2912 13.1005C64.6623 12.2633 64.8479 11.3558 64.8353 10.4401C64.8581 9.49102 64.695 8.54663 64.3553 7.66012C64.0118 6.8533 63.5611 6.09648 63.0154 5.41012C62.6469 4.99035 62.4473 4.44868 62.4554 3.89012C62.4525 3.5797 62.5121 3.27187 62.6306 2.98496C62.7491 2.69805 62.9242 2.43794 63.1454 2.22012C63.3569 1.99141 63.6137 1.80927 63.8995 1.68531C64.1853 1.56134 64.4938 1.49828 64.8053 1.50012C65.1736 1.49629 65.5374 1.58208 65.8652 1.75012C66.1549 1.90343 66.4128 2.11044 66.6251 2.36012C67.5331 3.39968 68.2568 4.58677 68.765 5.87012C69.3205 7.38707 69.5851 8.99515 69.5449 10.6101C69.5604 12.2337 69.2439 13.8433 68.615 15.3401C68.2576 16.1908 67.8012 16.9964 67.2551 17.7401L69.3449 21.3501Z" fill="#FFCC00"/>
<path d="M-9.66006e-06 26.7518C-0.00595672 26.4158 0.0569841 26.0821 0.184932 25.7713C0.312881 25.4605 0.503124 25.1793 0.743935 24.9448C0.9783 24.7039 1.25952 24.5135 1.57028 24.3853C1.88103 24.2572 2.21472 24.1941 2.5508 24.1998C2.88695 24.1942 3.22069 24.2575 3.53144 24.3858C3.8422 24.5141 4.12339 24.7047 4.35767 24.9458C4.59794 25.1804 4.78771 25.4616 4.91531 25.7721C5.0429 26.0827 5.10562 26.4161 5.09961 26.7518V33.5798H14.5119V26.7518C14.5121 26.247 14.6619 25.7536 14.9423 25.3338C15.2227 24.9141 15.6213 24.5869 16.0876 24.3935C16.5538 24.2001 17.067 24.1493 17.5621 24.2474C18.0573 24.3456 18.5123 24.5883 18.8696 24.9448C19.111 25.1789 19.3019 25.4601 19.4304 25.7709C19.5588 26.0817 19.6222 26.4156 19.6165 26.7518V45.2518C19.6158 45.7566 19.4656 46.2499 19.1849 46.6695C18.9042 47.089 18.5056 47.4161 18.0393 47.6094C17.573 47.8026 17.0599 47.8535 16.5647 47.7555C16.0695 47.6575 15.6144 47.4151 15.2569 47.0588C15.0161 46.8243 14.8259 46.543 14.6978 46.2323C14.5697 45.9215 14.5064 45.5879 14.5119 45.2518V38.2868H5.09961V45.2478C5.10512 45.584 5.04178 45.9177 4.9135 46.2285C4.78521 46.5392 4.59469 46.8205 4.35367 47.0548C4.11919 47.2957 3.83795 47.486 3.52722 47.6141C3.2165 47.7422 2.88285 47.8054 2.5468 47.7998C2.21075 47.8054 1.8771 47.7422 1.56638 47.6141C1.25565 47.486 0.974408 47.2957 0.739935 47.0548C0.499895 46.82 0.310424 46.5386 0.183174 46.2278C0.0559233 45.9171 -0.00641572 45.5836 -9.66006e-06 45.2478V26.7518Z" fill="#2B5480"/>
<path d="M36.4573 48C34.7638 48.0184 33.0838 47.697 31.5167 47.055C30.0678 46.4593 28.7462 45.592 27.623 44.5C26.5272 43.4247 25.6596 42.1394 25.0721 40.721C24.4577 39.2459 24.1472 37.662 24.1592 36.064V36C24.148 34.4006 24.4641 32.8157 25.0881 31.343C25.6935 29.9021 26.5776 28.5949 27.6895 27.4966C28.8015 26.3983 30.1194 25.5305 31.5677 24.943C34.7469 23.6817 38.2877 23.6817 41.4669 24.943C42.9139 25.5404 44.2337 26.4082 45.3556 27.5C46.4517 28.5751 47.3193 29.8604 47.9064 31.279C48.5208 32.7545 48.8313 34.3388 48.8194 35.937V36C48.8307 37.6001 48.5146 39.1857 47.8904 40.659C47.2859 42.1005 46.4021 43.408 45.29 44.5064C44.178 45.6048 42.8597 46.4724 41.4109 47.059C39.8386 47.6987 38.1546 48.0186 36.4573 48ZM36.5233 43.292C37.491 43.3015 38.4501 43.1101 39.3401 42.73C40.174 42.3699 40.9234 41.8392 41.5399 41.172C42.1524 40.4998 42.6351 39.72 42.9638 38.872C43.3097 37.9793 43.484 37.0294 43.4778 36.072V36C43.4832 35.0372 43.3089 34.0819 42.9638 33.183C42.6361 32.3211 42.1402 31.5329 41.505 30.8644C40.8699 30.1959 40.1081 29.6604 39.2641 29.289C38.3776 28.8969 37.4176 28.6988 36.4483 28.708C35.4743 28.6949 34.5085 28.8867 33.6135 29.271C32.7838 29.633 32.0384 30.1636 31.4247 30.829C30.8115 31.5026 30.3287 32.2842 30.0008 33.134C29.6539 34.0264 29.4795 34.9766 29.4868 35.934V36C29.4802 36.9633 29.6545 37.9192 30.0008 38.818C30.3284 39.677 30.822 40.4629 31.4534 41.1311C32.0847 41.7992 32.8415 42.3364 33.6805 42.712C34.5747 43.1098 35.5448 43.3077 36.5233 43.292Z" fill="#2B5480"/>
<path d="M53.3581 26.8171C53.3579 26.4818 53.4237 26.1498 53.5519 25.84C53.6802 25.5302 53.8682 25.2487 54.1053 25.0116C54.3424 24.7746 54.624 24.5867 54.9338 24.4586C55.2436 24.3305 55.5757 24.2647 55.911 24.2651H56.4739C56.9658 24.2481 57.4512 24.381 57.8658 24.6461C58.236 24.8949 58.5517 25.2164 58.7937 25.5911L64.9603 35.6351L71.1598 25.5581C71.3868 25.1542 71.72 24.8202 72.1233 24.5923C72.5266 24.3643 72.9846 24.2512 73.4476 24.2651H74.0106C74.3459 24.2647 74.6779 24.3305 74.9878 24.4586C75.2976 24.5867 75.5791 24.7746 75.8162 25.0116C76.0534 25.2487 76.2414 25.5302 76.3696 25.84C76.4978 26.1498 76.5637 26.4818 76.5634 26.8171V45.2481C76.5641 45.5839 76.4984 45.9164 76.37 46.2267C76.2417 46.5369 76.0533 46.8187 75.8157 47.0559C75.5781 47.2931 75.2959 47.4809 74.9854 47.6087C74.675 47.7364 74.3423 47.8014 74.0066 47.8001C73.6731 47.8066 73.3419 47.7437 73.034 47.6155C72.726 47.4872 72.4481 47.2964 72.2177 47.0551C71.9808 46.8185 71.794 46.5365 71.6686 46.226C71.5431 45.9156 71.4816 45.5829 71.4878 45.2481V33.6791L67.0131 40.5791C66.7734 40.9497 66.4645 41.2706 66.1032 41.5241C65.7406 41.7515 65.3213 41.8721 64.8933 41.8721C64.4653 41.8721 64.046 41.7515 63.6834 41.5241C63.321 41.2712 63.0113 40.9503 62.7714 40.5791L58.3628 33.7791V45.3151C58.3709 45.645 58.3104 45.9729 58.1851 46.2781C58.0597 46.5833 57.8724 46.8592 57.6348 47.0881C57.3995 47.3209 57.1198 47.5038 56.8123 47.6261C56.5048 47.7485 56.1758 47.8076 55.845 47.8001C55.5166 47.8071 55.1903 47.7476 54.8856 47.6252C54.5809 47.5028 54.3041 47.32 54.0718 47.0879C53.8395 46.8558 53.6565 46.5791 53.5339 46.2744C53.4112 45.9698 53.3515 45.6435 53.3581 45.3151V26.8171Z" fill="#2B5480"/>
<path d="M84.6807 47.6C84.3453 47.6006 84.0132 47.5349 83.7032 47.4068C83.3932 47.2787 83.1116 47.0906 82.8745 46.8535C82.6373 46.6163 82.4493 46.3346 82.3212 46.0247C82.1931 45.7147 82.1274 45.3825 82.1279 45.047V26.947C82.1282 26.6121 82.1944 26.2806 82.3229 25.9713C82.4514 25.662 82.6395 25.381 82.8766 25.1445C83.1137 24.908 83.395 24.7205 83.7046 24.5927C84.0141 24.465 84.3459 24.3995 84.6807 24.4H97.5408C97.842 24.3967 98.1408 24.4536 98.4197 24.5673C98.6986 24.6811 98.952 24.8494 99.1649 25.0625C99.3779 25.2755 99.5461 25.529 99.6597 25.808C99.7734 26.087 99.8301 26.3858 99.8266 26.687C99.834 26.9863 99.7791 27.2838 99.6653 27.5606C99.5515 27.8374 99.3814 28.0875 99.1657 28.295C98.9519 28.5061 98.6979 28.6722 98.4188 28.7833C98.1397 28.8944 97.8411 28.9484 97.5408 28.942H87.1996V33.649H96.0499C96.351 33.6458 96.6498 33.7028 96.9287 33.8166C97.2075 33.9304 97.4608 34.0988 97.6737 34.3118C97.8866 34.5248 98.0549 34.7782 98.1686 35.0571C98.2822 35.3361 98.3391 35.6349 98.3357 35.936C98.3433 36.2352 98.2883 36.5326 98.1741 36.8092C98.0599 37.0858 97.8892 37.3354 97.6728 37.542C97.4596 37.7534 97.206 37.9197 96.9272 38.031C96.6484 38.1423 96.35 38.1964 96.0499 38.19H87.1996V43.061H97.7068C98.0078 43.0581 98.3065 43.1153 98.5852 43.2292C98.8639 43.3431 99.1171 43.5114 99.33 43.7244C99.5429 43.9374 99.7111 44.1907 99.8249 44.4695C99.9387 44.7482 99.9957 45.0469 99.9926 45.348C99.9998 45.6473 99.9447 45.9448 99.8307 46.2217C99.7168 46.4985 99.5465 46.7486 99.3306 46.956C99.117 47.1668 98.8631 47.3326 98.5842 47.4434C98.3052 47.5542 98.0068 47.6078 97.7068 47.601L84.6807 47.6Z" fill="#2B5480"/>
</g>
<defs>
<clipPath id="clip0_1055_2729">
<rect width="120" height="48" fill="white"/>
</clipPath>
</defs>
</svg>
