<svg width="60" height="24" viewBox="0 0 60 24" fill="none" xmlns="http://www.w3.org/2000/svg">
<path d="M2.52636e-07 1.47541C-0.00290857 1.30735 0.0286404 1.14048 0.0927014 0.985089C0.156762 0.829697 0.251977 0.689079 0.372472 0.571905C0.489384 0.451375 0.629816 0.35616 0.785054 0.292168C0.940293 0.228175 1.10703 0.196772 1.27491 0.199905H4.51916C5.36986 0.190234 6.21491 0.339281 7.01098 0.639405C7.73585 0.91252 8.39967 1.3261 8.96433 1.85641C9.50876 2.37259 9.94 2.99627 10.2307 3.68791C10.5327 4.40942 10.6847 5.18479 10.6777 5.96691V5.99991C10.6842 6.78488 10.5322 7.56309 10.2307 8.2879C9.9414 8.98249 9.51004 9.60889 8.96433 10.1269C8.39891 10.6587 7.73548 11.0754 7.01098 11.3539C6.21612 11.6592 5.37056 11.8109 4.51916 11.8009H1.27491C1.10737 11.8036 0.941072 11.7718 0.786284 11.7077C0.631496 11.6435 0.491508 11.5483 0.374972 11.4279C0.253891 11.3109 0.158129 11.1703 0.0936269 11.0148C0.0291244 10.8593 -0.00274328 10.6922 2.52636e-07 10.5239V1.47541ZM4.51916 9.4999C5.00518 9.50543 5.48799 9.42066 5.94306 9.2499C6.35675 9.09468 6.73197 8.85179 7.04298 8.5379C7.34942 8.22302 7.59128 7.8512 7.75492 7.44341C7.93123 6.99489 8.01835 6.51628 8.0114 6.03441V5.99991C8.01622 5.51837 7.92917 5.04033 7.75492 4.5914C7.59439 4.17728 7.35228 3.79964 7.04298 3.48091C6.73085 3.16621 6.35613 2.92057 5.94306 2.75991C5.4891 2.58441 5.00582 2.49718 4.51916 2.50291H2.54981V9.4999H4.51916Z" fill="#2B5480"/>
<path d="M14.2204 11.7999C14.0528 11.8003 13.8868 11.7675 13.7319 11.7034C13.577 11.6393 13.4363 11.5453 13.3178 11.4267C13.1994 11.3081 13.1056 11.1672 13.0418 11.0122C12.978 10.8572 12.9454 10.6911 12.946 10.5234V1.47544C12.9431 1.30742 12.9745 1.14057 13.0385 0.985185C13.1025 0.829795 13.1976 0.689157 13.318 0.571941C13.435 0.451483 13.5754 0.356315 13.7306 0.292328C13.8859 0.228341 14.0526 0.196897 14.2204 0.199941H20.644C20.7946 0.196839 20.9443 0.224655 21.0838 0.281671C21.2232 0.338688 21.3495 0.423694 21.4549 0.531441C21.5627 0.63696 21.6477 0.763451 21.7047 0.903109C21.7617 1.04277 21.7895 1.19263 21.7864 1.34344C21.79 1.49313 21.7624 1.64194 21.7053 1.78037C21.6483 1.9188 21.563 2.04382 21.4549 2.14744C21.3483 2.25304 21.2216 2.3361 21.0823 2.39168C20.943 2.44725 20.7939 2.47421 20.644 2.47094H15.4783V4.82344H19.8985C20.049 4.8219 20.1983 4.85044 20.3377 4.90737C20.477 4.96431 20.6036 5.04851 20.7099 5.15502C20.8163 5.26153 20.9003 5.38822 20.9571 5.52764C21.0138 5.66706 21.0422 5.81642 21.0404 5.96694C21.044 6.11651 21.0165 6.26519 20.9595 6.40352C20.9025 6.54185 20.8173 6.66681 20.7094 6.77044C20.6029 6.87601 20.4762 6.95906 20.3369 7.01464C20.1975 7.07021 20.0485 7.09718 19.8985 7.09394H15.4783V9.53044H20.7279C20.8785 9.52883 21.0279 9.55732 21.1673 9.61423C21.3067 9.67114 21.4333 9.75532 21.5397 9.86184C21.6461 9.96836 21.7302 10.0951 21.787 10.2345C21.8437 10.374 21.8721 10.5234 21.8704 10.6739C21.874 10.8236 21.8464 10.9723 21.7894 11.1108C21.7325 11.2492 21.6473 11.3742 21.5394 11.4779C21.4327 11.5834 21.3059 11.6664 21.1665 11.7218C21.0271 11.7772 20.8779 11.8039 20.7279 11.8004L14.2204 11.7999Z" fill="#2B5480"/>
<path d="M41.8849 11.9999C41.0392 12.009 40.2002 11.8484 39.4176 11.5274C38.6939 11.2298 38.0337 10.7965 37.4727 10.2509C36.9249 9.71376 36.4912 9.0714 36.1978 8.36243C35.8917 7.62423 35.737 6.83206 35.7429 6.03293V5.99993C35.737 5.20033 35.8945 4.40796 36.2058 3.67143C36.5081 2.9512 36.9497 2.29777 37.5051 1.74863C38.0606 1.19949 38.719 0.765454 39.4426 0.47143C41.0298 -0.158445 42.7976 -0.158445 44.3847 0.47143C45.1085 0.769907 45.7686 1.20384 46.3296 1.74993C46.8772 2.2877 47.3108 2.93032 47.6045 3.63943C47.9107 4.37742 48.0654 5.16945 48.0595 5.96843V5.99993C48.0652 6.79984 47.9076 7.59251 47.5965 8.32943C47.2942 9.04974 46.8526 9.70324 46.2971 10.2524C45.7415 10.8015 45.083 11.2355 44.3592 11.5294C43.5739 11.8491 42.7328 12.0091 41.8849 11.9999ZM41.9174 9.64593C42.401 9.65116 42.8803 9.55545 43.3248 9.36493C43.7419 9.18499 44.1166 8.91961 44.4247 8.58593C44.7307 8.24973 44.9719 7.85984 45.1362 7.43593C45.309 6.98956 45.396 6.51458 45.3927 6.03593V5.99993C45.3955 5.51856 45.3085 5.04089 45.1362 4.59143C44.9732 4.16077 44.7262 3.76681 44.4095 3.43248C44.0929 3.09814 43.713 2.8301 43.2918 2.64393C42.8489 2.4478 42.3692 2.34875 41.8849 2.35343C41.3984 2.34697 40.916 2.44287 40.469 2.63493C40.0546 2.81593 39.6824 3.08123 39.3761 3.41393C39.0699 3.75 38.8287 4.13992 38.6647 4.56393C38.4914 5.0102 38.4043 5.48523 38.4077 5.96393V5.99993C38.4046 6.48152 38.4918 6.95942 38.6647 7.40893C38.8279 7.83876 39.0742 8.23221 39.3896 8.5668C39.7049 8.90139 40.0831 9.17056 40.5025 9.35893C40.9479 9.55561 41.4306 9.65352 41.9174 9.64593Z" fill="#2B5480"/>
<path d="M50.3278 1.47542C50.3248 1.3074 50.3563 1.14055 50.4202 0.98516C50.4842 0.829771 50.5793 0.689133 50.6997 0.571917C50.8167 0.451411 50.9571 0.356211 51.1123 0.292221C51.2676 0.22823 51.4343 0.196813 51.6022 0.199916H55.6249C57.0914 0.199916 58.2172 0.59225 59.0021 1.37692C59.3389 1.72815 59.6007 2.14428 59.7715 2.59996C59.9423 3.05564 60.0185 3.54132 59.9955 4.02742V4.06042C60.0338 4.85735 59.8131 5.64526 59.3666 6.30642C58.9352 6.88427 58.3502 7.32934 57.6782 7.59092L59.4496 9.74492C59.5633 9.88757 59.6638 10.0404 59.7496 10.2014C59.8294 10.3636 59.869 10.5427 59.865 10.7234C59.871 10.8845 59.8407 11.0449 59.7762 11.1927C59.7117 11.3404 59.6148 11.4718 59.4926 11.5769C59.2637 11.7847 58.9657 11.8999 58.6566 11.8999C58.4005 11.908 58.1475 11.8419 57.9282 11.7094C57.7279 11.5809 57.549 11.4216 57.3982 11.2374L54.9149 8.08742H52.8791V10.6234C52.8791 10.9616 52.7447 11.2859 52.5057 11.525C52.2666 11.7641 51.9423 11.8984 51.6042 11.8984C51.266 11.8984 50.9418 11.7641 50.7027 11.525C50.4636 11.2859 50.3293 10.9616 50.3293 10.6234L50.3278 1.47542ZM55.4594 5.83442C55.9817 5.86895 56.4983 5.70862 56.9093 5.38442C57.0763 5.23514 57.2082 5.05068 57.2955 4.8443C57.3827 4.63793 57.4231 4.41478 57.4137 4.19092V4.15992C57.432 3.92439 57.3934 3.68793 57.3013 3.47041C57.2091 3.25288 57.0661 3.06067 56.8843 2.90992C56.4513 2.6154 55.9331 2.47246 55.4104 2.50342H52.8781V5.83542L55.4594 5.83442Z" fill="#2B5480"/>
<path d="M34.6725 10.6751C34.7719 10.8475 34.7988 11.0523 34.7472 11.2445C34.6957 11.4367 34.5699 11.6006 34.3975 11.7001C34.2251 11.7995 34.0203 11.8264 33.8281 11.7748C33.6359 11.7233 33.472 11.5975 33.3726 11.4251L32.5426 9.99006C32.1181 10.3271 31.6465 10.6 31.1427 10.8001C30.4016 11.1021 29.6082 11.255 28.8079 11.2501H28.7729C27.4112 11.2596 26.0862 10.8085 25.0132 9.97006L24.1732 11.4251C24.124 11.5104 24.0584 11.5852 23.9803 11.6453C23.9021 11.7053 23.8129 11.7493 23.7177 11.7748C23.5255 11.8264 23.3207 11.7995 23.1483 11.7001C22.9759 11.6006 22.8501 11.4367 22.7986 11.2445C22.747 11.0523 22.7739 10.8475 22.8733 10.6751L23.9233 8.85006C23.6529 8.47827 23.4248 8.07745 23.2433 7.65506C22.9219 6.87879 22.762 6.04517 22.7734 5.20506C22.7563 4.45207 22.8662 3.70158 23.0983 2.98506C23.3056 2.39753 23.5915 1.8408 23.9483 1.33006C24.0625 1.1888 24.2035 1.07155 24.3632 0.985062C24.5467 0.883496 24.7535 0.831779 24.9632 0.835062C25.1279 0.831216 25.2917 0.861679 25.444 0.924515C25.5964 0.987351 25.734 1.08119 25.8481 1.20006C25.9643 1.31782 26.0556 1.45774 26.1165 1.61149C26.1775 1.76525 26.207 1.9297 26.2031 2.09506C26.2083 2.24739 26.1811 2.39909 26.1231 2.54006C26.0748 2.64934 26.0179 2.75466 25.9531 2.85506C25.6996 3.19154 25.4943 3.56178 25.3432 3.95506C25.195 4.36009 25.1221 4.78881 25.1282 5.22006C25.1224 5.67565 25.214 6.12722 25.3968 6.54456C25.5795 6.96191 25.8493 7.3354 26.1881 7.64006C26.5253 7.94061 26.9152 8.17624 27.338 8.33506C27.7857 8.50241 28.26 8.58711 28.7379 8.58506H28.7729C29.254 8.58669 29.7316 8.50201 30.1828 8.33506C30.6085 8.17813 31.0016 7.94424 31.3427 7.64506C31.6862 7.34231 31.9601 6.96883 32.1456 6.55025C32.3312 6.13166 32.424 5.67789 32.4176 5.22006C32.429 4.74551 32.3475 4.27331 32.1776 3.83006C32.0059 3.42665 31.7806 3.04824 31.5077 2.70506C31.3234 2.49518 31.2237 2.22434 31.2277 1.94506C31.2262 1.78985 31.256 1.63593 31.3153 1.49248C31.3746 1.34902 31.4621 1.21897 31.5727 1.11006C31.6784 0.995706 31.8069 0.904636 31.9498 0.842654C32.0926 0.780672 32.2469 0.749138 32.4026 0.750062C32.5868 0.748143 32.7687 0.791042 32.9326 0.875062C33.0774 0.951717 33.2064 1.05522 33.3126 1.18006C33.7666 1.69984 34.1284 2.29338 34.3825 2.93506C34.6602 3.69354 34.7925 4.49757 34.7725 5.30506C34.7802 6.11684 34.622 6.92164 34.3075 7.67006C34.1288 8.09541 33.9006 8.49819 33.6275 8.87006L34.6725 10.6751Z" fill="#FFCC00"/>
<path d="M-6.16565e-08 13.3759C-0.00297359 13.2079 0.0284968 13.0411 0.0924709 12.8857C0.156445 12.7303 0.251567 12.5896 0.371972 12.4724C0.489155 12.3519 0.629767 12.2567 0.785142 12.1927C0.940518 12.1286 1.10737 12.097 1.2754 12.0999C1.44348 12.0971 1.61035 12.1287 1.76573 12.1929C1.92111 12.257 2.0617 12.3523 2.17884 12.4729C2.29898 12.5902 2.39386 12.7308 2.45766 12.8861C2.52145 13.0414 2.55281 13.2081 2.54981 13.3759V16.7899H7.25596V13.3759C7.25605 13.1235 7.33093 12.8768 7.47115 12.6669C7.61137 12.457 7.81064 12.2934 8.04378 12.1968C8.27693 12.1001 8.53349 12.0747 8.78107 12.1237C9.02865 12.1728 9.25614 12.2941 9.4348 12.4724C9.55552 12.5895 9.65095 12.73 9.71519 12.8854C9.77943 13.0409 9.81111 13.2078 9.80827 13.3759V22.6259C9.8079 22.8783 9.73281 23.125 9.59246 23.3347C9.45211 23.5445 9.25279 23.708 9.01964 23.8047C8.78648 23.9013 8.52993 23.9267 8.28235 23.8778C8.03476 23.8288 7.80723 23.7076 7.62843 23.5294C7.50808 23.4121 7.41296 23.2715 7.34891 23.1161C7.28486 22.9608 7.25323 22.7939 7.25596 22.6259V19.1434H2.54981V22.6239C2.55257 22.792 2.5209 22.9589 2.45675 23.1142C2.39261 23.2696 2.29735 23.4102 2.17684 23.5274C2.0596 23.6478 1.91898 23.743 1.76362 23.807C1.60825 23.8711 1.44143 23.9027 1.2734 23.8999C1.10538 23.9027 0.938557 23.8711 0.783194 23.807C0.627831 23.743 0.487209 23.6478 0.369972 23.5274C0.249952 23.41 0.155217 23.2693 0.0915915 23.1139C0.0279664 22.9585 -0.00320309 22.7918 -6.16565e-08 22.6239V13.3759Z" fill="#2B5480"/>
<path d="M18.2286 24C17.3819 24.0092 16.5419 23.8485 15.7583 23.5275C15.0339 23.2296 14.3731 22.796 13.8115 22.25C13.2636 21.7124 12.8298 21.0697 12.5361 20.3605C12.2289 19.623 12.0736 18.831 12.0796 18.032V18C12.074 17.2003 12.232 16.4079 12.5441 15.6715C12.8468 14.951 13.2888 14.2975 13.8448 13.7483C14.4007 13.1992 15.0597 12.7653 15.7838 12.4715C17.3735 11.8409 19.1438 11.8409 20.7335 12.4715C21.457 12.7702 22.1169 13.2041 22.6778 13.75C23.2258 14.2875 23.6597 14.9302 23.9532 15.6395C24.2604 16.3773 24.4156 17.1694 24.4097 17.9685V18C24.4154 18.8001 24.2573 19.5928 23.9452 20.3295C23.6429 21.0502 23.2011 21.704 22.645 22.2532C22.089 22.8024 21.4298 23.2362 20.7055 23.5295C19.9193 23.8493 19.0773 24.0093 18.2286 24ZM18.2616 21.646C18.7455 21.6507 19.225 21.555 19.67 21.365C20.087 21.185 20.4617 20.9196 20.77 20.586C21.0762 20.2499 21.3176 19.86 21.4819 19.436C21.6548 18.9897 21.742 18.5147 21.7389 18.036V18C21.7416 17.5186 21.6544 17.0409 21.4819 16.5915C21.318 16.1605 21.0701 15.7665 20.7525 15.4322C20.4349 15.098 20.0541 14.8302 19.632 14.6445C19.1888 14.4484 18.7088 14.3494 18.2242 14.354C17.7372 14.3475 17.2543 14.4434 16.8068 14.6355C16.3919 14.8165 16.0192 15.0818 15.7123 15.4145C15.4058 15.7513 15.1643 16.1421 15.0004 16.567C14.8269 17.0132 14.7397 17.4883 14.7434 17.967V18C14.7401 18.4816 14.8273 18.9596 15.0004 19.409C15.1642 19.8385 15.411 20.2315 15.7267 20.5655C16.0424 20.8996 16.4208 21.1682 16.8403 21.356C17.2873 21.5549 17.7724 21.6538 18.2616 21.646Z" fill="#2B5480"/>
<path d="M26.6791 13.4086C26.6789 13.2409 26.7119 13.0749 26.776 12.92C26.8401 12.7651 26.9341 12.6243 27.0527 12.5058C27.1712 12.3873 27.312 12.2933 27.4669 12.2293C27.6218 12.1652 27.7878 12.1324 27.9555 12.1326H28.237C28.4829 12.1241 28.7256 12.1905 28.9329 12.3231C29.118 12.4475 29.2759 12.6082 29.3969 12.7956L32.4801 17.8176L35.5799 12.7791C35.6934 12.5771 35.86 12.4101 36.0616 12.2961C36.2633 12.1822 36.4923 12.1256 36.7238 12.1326H37.0053C37.1729 12.1324 37.339 12.1652 37.4939 12.2293C37.6488 12.2933 37.7896 12.3873 37.9081 12.5058C38.0267 12.6243 38.1207 12.7651 38.1848 12.92C38.2489 13.0749 38.2818 13.2409 38.2817 13.4086V22.6241C38.282 22.7919 38.2492 22.9582 38.185 23.1133C38.1209 23.2685 38.0267 23.4094 37.9079 23.528C37.789 23.6465 37.648 23.7405 37.4927 23.8043C37.3375 23.8682 37.1712 23.9007 37.0033 23.9001C36.8365 23.9033 36.6709 23.8718 36.517 23.8077C36.363 23.7436 36.224 23.6482 36.1089 23.5276C35.9904 23.4093 35.897 23.2683 35.8343 23.113C35.7716 22.9578 35.7408 22.7915 35.7439 22.6241V16.8396L33.5066 20.2896C33.3867 20.4749 33.2322 20.6353 33.0516 20.7621C32.8703 20.8757 32.6606 20.936 32.4466 20.936C32.2327 20.936 32.023 20.8757 31.8417 20.7621C31.6605 20.6356 31.5056 20.4751 31.3857 20.2896L29.1814 16.8896V22.6576C29.1854 22.8225 29.1552 22.9864 29.0925 23.1391C29.0299 23.2917 28.9362 23.4296 28.8174 23.5441C28.6998 23.6604 28.5599 23.7519 28.4061 23.8131C28.2524 23.8742 28.0879 23.9038 27.9225 23.9001C27.7583 23.9035 27.5952 23.8738 27.4428 23.8126C27.2904 23.7514 27.152 23.66 27.0359 23.5439C26.9197 23.4279 26.8283 23.2895 26.7669 23.1372C26.7056 22.9849 26.6757 22.8217 26.6791 22.6576V13.4086Z" fill="#2B5480"/>
<path d="M42.3404 23.8C42.1727 23.8003 42.0066 23.7674 41.8516 23.7034C41.6966 23.6393 41.5558 23.5453 41.4372 23.4267C41.3187 23.3081 41.2246 23.1673 41.1606 23.0123C41.0965 22.8573 41.0637 22.6912 41.064 22.5235V13.4735C41.0641 13.3061 41.0972 13.1403 41.1615 12.9856C41.2257 12.831 41.3198 12.6905 41.4383 12.5723C41.5568 12.454 41.6975 12.3602 41.8523 12.2964C42.0071 12.2325 42.1729 12.1998 42.3404 12.2H48.7704C48.921 12.1983 49.0704 12.2268 49.2099 12.2837C49.3493 12.3405 49.476 12.4247 49.5825 12.5312C49.6889 12.6378 49.7731 12.7645 49.8299 12.904C49.8867 13.0435 49.9151 13.1929 49.9133 13.3435C49.917 13.4931 49.8896 13.6419 49.8327 13.7803C49.7758 13.9187 49.6907 14.0438 49.5828 14.1475C49.476 14.2531 49.349 14.3361 49.2094 14.3917C49.0699 14.4472 48.9206 14.4742 48.7704 14.471H43.5998V16.8245H48.025C48.1755 16.8229 48.3249 16.8514 48.4643 16.9083C48.6038 16.9652 48.7304 17.0494 48.8369 17.1559C48.9433 17.2624 49.0274 17.3891 49.0843 17.5286C49.1411 17.668 49.1695 17.8174 49.1679 17.968C49.1717 18.1176 49.1442 18.2663 49.0871 18.4046C49.03 18.5429 48.9446 18.6677 48.8364 18.771C48.7298 18.8767 48.603 18.9598 48.4636 19.0155C48.3242 19.0712 48.175 19.0982 48.025 19.095H43.5998V21.5305H48.8534C49.0039 21.5291 49.1533 21.5576 49.2926 21.6146C49.432 21.6715 49.5586 21.7557 49.665 21.8622C49.7714 21.9687 49.8556 22.0953 49.9124 22.2347C49.9693 22.3741 49.9978 22.5235 49.9963 22.674C49.9999 22.8237 49.9724 22.9724 49.9154 23.1108C49.8584 23.2493 49.7732 23.3743 49.6653 23.478C49.5585 23.5834 49.4316 23.6663 49.2921 23.7217C49.1526 23.7771 49.0034 23.8039 48.8534 23.8005L42.3404 23.8Z" fill="#2B5480"/>
</svg>
